STARTFONT 2.1
FONT -JDECW-Mincho-Medium-R-Normal--14-100-100-100-M-140-JISX0208.1983-1.3
SIZE 10 100 100
FONTBOUNDINGBOX 16 16 0 -2

STARTPROPERTIES 26
FONTNAME_REGISTRY ""
FAMILY_NAME "Mincho"
FOUNDRY "JDECW"
WEIGHT_NAME "Medium"
SLANT "R"
SETWIDTH_NAME "Normal"
ADD_STYLE_NAME ""
PIXEL_SIZE 14
POINT_SIZE 100
RESOLUTION_X 100
RESOLUTION_Y 100
SPACING "M"
AVERAGE_WIDTH 140
CHARSET_REGISTRY "JISX0208.1983"
CHARSET_ENCODING "1"
DEVICE_FONT_NAME "Mincho-JISX0208.1983-1"
CHARSET_COLLECTIONS "JISX0208.1983 1"
FULL_NAME "Mincho-JISX0208.1983-1"
COPYRIGHT "Copyright (c) 1990 1991 TYPEBANK, Digital Equipment Corporation Japan"
CAP_HEIGHT 11
X_HEIGHT 8
WEIGHT 10
QUAD_WIDTH 16
DEFAULT_CHAR 41634
FONT_DESCENT 2
FONT_ASCENT 14
ENDPROPERTIES

CHARS 59

STARTCHAR Ca1a2
ENCODING 41378
SWIDTH 1000 0
DWIDTH 16 0
BBX 16 16 0 -2
BITMAP
0000
0010
000C
0002
0002
0000
0000
0000
0000
0000
0000
0000
0000
0000
0000
0000
ENDCHAR

STARTCHAR Ca1a3
ENCODING 41379
SWIDTH 1000 0
DWIDTH 16 0
BBX 16 16 0 -2
BITMAP
0000
001C
0022
0022
0022
001C
0000
0000
0000
0000
0000
0000
0000
0000
0000
0000
ENDCHAR

STARTCHAR Ca1a4
ENCODING 41380
SWIDTH 1000 0
DWIDTH 16 0
BBX 16 16 0 -2
BITMAP
0000
0006
0006
0002
0004
0000
0000
0000
0000
0000
0000
0000
0000
0000
0000
0000
ENDCHAR

STARTCHAR Ca1a5
ENCODING 41381
SWIDTH 1000 0
DWIDTH 16 0
BBX 16 16 0 -2
BITMAP
0000
000C
000C
0000
0000
0000
0000
0000
0000
0000
0000
0000
0000
0000
0000
0000
ENDCHAR

STARTCHAR Ca1b1
ENCODING 41393
SWIDTH 1000 0
DWIDTH 16 0
BBX 16 16 0 -2
BITMAP
0000
0002
0002
0002
0002
0002
0002
0002
0002
0002
0002
0002
0002
0002
0002
0000
ENDCHAR

STARTCHAR Ca1b2
ENCODING 41394
SWIDTH 1000 0
DWIDTH 16 0
BBX 16 16 0 -2
BITMAP
0000
4000
4000
4000
4000
4000
4000
4000
4000
4000
4000
4000
4000
4000
4000
0000
ENDCHAR

STARTCHAR Ca1bc
ENCODING 41404
SWIDTH 1000 0
DWIDTH 16 0
BBX 16 16 0 -2
BITMAP
0000
0100
0080
0080
0080
0080
0080
0080
0080
0080
0080
0180
0080
0000
0000
0000
ENDCHAR

STARTCHAR Ca1bd
ENCODING 41405
SWIDTH 1000 0
DWIDTH 16 0
BBX 16 16 0 -2
BITMAP
0000
0100
0100
0100
0100
0100
0100
0100
0100
0100
0100
0100
0100
0100
0000
0000
ENDCHAR

STARTCHAR Ca1be
ENCODING 41406
SWIDTH 1000 0
DWIDTH 16 0
BBX 16 16 0 -2
BITMAP
0000
0000
0000
0000
0100
0100
0100
0100
0100
0100
0100
0000
0000
0000
0000
0000
ENDCHAR

STARTCHAR Ca1c1
ENCODING 41409
SWIDTH 1000 0
DWIDTH 16 0
BBX 16 16 0 -2
BITMAP
0000
0040
0080
0100
0100
0100
0080
0080
0040
0040
0040
0080
0100
0000
0000
0000
ENDCHAR

STARTCHAR Ca1c2
ENCODING 41410
SWIDTH 1000 0
DWIDTH 16 0
BBX 16 16 0 -2
BITMAP
0000
0000
0000
0000
0000
7FFE
0000
0000
7FFE
0000
0000
0000
0000
0000
0000
0000
ENDCHAR

STARTCHAR Ca1c3
ENCODING 41411
SWIDTH 1000 0
DWIDTH 16 0
BBX 16 16 0 -2
BITMAP
0000
0000
0000
0000
0000
0000
0000
7FFE
0000
0000
0000
0000
0000
0000
0000
0000
ENDCHAR

STARTCHAR Ca1c4
ENCODING 41412
SWIDTH 1000 0
DWIDTH 16 0
BBX 16 16 0 -2
BITMAP
0000
0000
0180
0180
0000
0000
0180
0180
0000
0000
0180
0180
0000
0000
0000
0000
ENDCHAR

STARTCHAR Ca1c5
ENCODING 41413
SWIDTH 1000 0
DWIDTH 16 0
BBX 16 16 0 -2
BITMAP
0000
0000
0000
0180
0180
0000
0000
0000
0000
0000
0180
0180
0000
0000
0000
0000
ENDCHAR

STARTCHAR Ca1c6
ENCODING 41414
SWIDTH 1000 0
DWIDTH 16 0
BBX 16 16 0 -2
BITMAP
0000
0000
0000
0000
0000
0000
0000
0000
0000
0000
0000
0000
003C
0032
0000
0000
ENDCHAR

STARTCHAR Ca1c7
ENCODING 41415
SWIDTH 1000 0
DWIDTH 16 0
BBX 16 16 0 -2
BITMAP
0000
0026
001E
0000
0000
0000
0000
0000
0000
0000
0000
0000
0000
0000
0000
0000
ENDCHAR

STARTCHAR Ca1c8
ENCODING 41416
SWIDTH 1000 0
DWIDTH 16 0
BBX 16 16 0 -2
BITMAP
0000
0000
0000
0000
0000
0000
0000
0000
0000
003C
0032
0000
003C
0032
0000
0000
ENDCHAR

STARTCHAR Ca1c9
ENCODING 41417
SWIDTH 1000 0
DWIDTH 16 0
BBX 16 16 0 -2
BITMAP
0000
0026
001E
0000
0026
001E
0000
0000
0000
0000
0000
0000
0000
0000
0000
0000
ENDCHAR

STARTCHAR Ca1ca
ENCODING 41418
SWIDTH 1000 0
DWIDTH 16 0
BBX 16 16 0 -2
BITMAP
0000
0000
0000
0000
0000
0000
0000
0000
0000
07E0
1818
2004
4002
0000
0000
0000
ENDCHAR

STARTCHAR Ca1cb
ENCODING 41419
SWIDTH 1000 0
DWIDTH 16 0
BBX 16 16 0 -2
BITMAP
0000
0000
4002
2004
1818
07E0
0000
0000
0000
0000
0000
0000
0000
0000
0000
0000
ENDCHAR

STARTCHAR Ca1cc
ENCODING 41420
SWIDTH 1000 0
DWIDTH 16 0
BBX 16 16 0 -2
BITMAP
0000
0000
0000
0000
0000
0000
0000
0000
0000
0000
1FF8
2004
4002
0000
0000
0000
ENDCHAR

STARTCHAR Ca1cd
ENCODING 41421
SWIDTH 1000 0
DWIDTH 16 0
BBX 16 16 0 -2
BITMAP
0000
0000
4002
2004
1FF8
0000
0000
0000
0000
0000
0000
0000
0000
0000
0000
0000
ENDCHAR

STARTCHAR Ca1ce
ENCODING 41422
SWIDTH 1000 0
DWIDTH 16 0
BBX 16 16 0 -2
BITMAP
0000
0000
0000
0000
0000
0000
0000
0000
0000
0000
7FFE
4002
4002
0000
0000
0000
ENDCHAR

STARTCHAR Ca1cf
ENCODING 41423
SWIDTH 1000 0
DWIDTH 16 0
BBX 16 16 0 -2
BITMAP
0000
0000
4002
4002
7FFE
0000
0000
0000
0000
0000
0000
0000
0000
0000
0000
0000
ENDCHAR

STARTCHAR Ca1d0
ENCODING 41424
SWIDTH 1000 0
DWIDTH 16 0
BBX 16 16 0 -2
BITMAP
0000
0000
0000
0000
0000
0000
0000
0000
0080
0140
3E3C
4002
4002
0000
0000
0000
ENDCHAR

STARTCHAR Ca1d1
ENCODING 41425
SWIDTH 1000 0
DWIDTH 16 0
BBX 16 16 0 -2
BITMAP
0000
0000
4002
4002
3E3C
0140
0080
0000
0000
0000
0000
0000
0000
0000
0000
0000
ENDCHAR

STARTCHAR Ca1d2
ENCODING 41426
SWIDTH 1000 0
DWIDTH 16 0
BBX 16 16 0 -2
BITMAP
0000
0000
0000
0000
0000
0000
0000
0180
0240
0420
0810
1008
2004
4002
0000
0000
ENDCHAR

STARTCHAR Ca1d3
ENCODING 41427
SWIDTH 1000 0
DWIDTH 16 0
BBX 16 16 0 -2
BITMAP
0000
4002
2004
1008
0810
0420
0240
0180
0000
0000
0000
0000
0000
0000
0000
0000
ENDCHAR

STARTCHAR Ca1d4
ENCODING 41428
SWIDTH 1000 0
DWIDTH 16 0
BBX 16 16 0 -2
BITMAP
0000
0000
0000
0000
0180
0240
0420
0990
1248
2424
4812
1008
2004
4002
0000
0000
ENDCHAR

STARTCHAR Ca1d5
ENCODING 41429
SWIDTH 1000 0
DWIDTH 16 0
BBX 16 16 0 -2
BITMAP
0000
4002
2004
1008
4812
2424
1248
0990
0420
0240
0180
0000
0000
0000
0000
0000
ENDCHAR

STARTCHAR Ca1d6
ENCODING 41430
SWIDTH 1000 0
DWIDTH 16 0
BBX 16 16 0 -2
BITMAP
0000
0000
0000
0000
0000
0000
0000
0000
0000
03FE
0002
0002
0002
0000
0000
0000
ENDCHAR

STARTCHAR Ca1d7
ENCODING 41431
SWIDTH 1000 0
DWIDTH 16 0
BBX 16 16 0 -2
BITMAP
0000
0000
4000
4000
4000
7FC0
0000
0000
0000
0000
0000
0000
0000
0000
0000
0000
ENDCHAR

STARTCHAR Ca1d8
ENCODING 41432
SWIDTH 1000 0
DWIDTH 16 0
BBX 16 16 0 -2
BITMAP
0000
0000
0000
0000
0000
0000
0000
03FE
0202
03FA
000A
000A
000E
0000
0000
0000
ENDCHAR

STARTCHAR Ca1d9
ENCODING 41433
SWIDTH 1000 0
DWIDTH 16 0
BBX 16 16 0 -2
BITMAP
0000
0000
7000
5000
5000
5FC0
4040
7FC0
0000
0000
0000
0000
0000
0000
0000
0000
ENDCHAR

STARTCHAR Ca1da
ENCODING 41434
SWIDTH 1000 0
DWIDTH 16 0
BBX 16 16 0 -2
BITMAP
0000
0000
0000
0000
0000
0000
0000
0000
7FFE
7FFE
781E
6006
4002
0000
0000
0000
ENDCHAR

STARTCHAR Ca1db
ENCODING 41435
SWIDTH 1000 0
DWIDTH 16 0
BBX 16 16 0 -2
BITMAP
0000
0000
4002
6006
781E
7FFE
7FFE
0000
0000
0000
0000
0000
0000
0000
0000
0000
ENDCHAR

STARTCHAR Ca2a2
ENCODING 41634
SWIDTH 1000 0
DWIDTH 16 0
BBX 16 16 0 -2
BITMAP
0000
0000
0000
3FF8
2008
2008
2008
2008
2008
2008
2008
2008
3FF8
0000
0000
0000
ENDCHAR

STARTCHAR Ca4a1
ENCODING 42145
SWIDTH 1000 0
DWIDTH 16 0
BBX 16 16 0 -2
BITMAP
0000
0000
0080
02F0
0180
0080
00F8
01A4
02A2
0442
0482
030C
0030
0000
0000
0000
ENDCHAR

STARTCHAR Ca4a3
ENCODING 42147
SWIDTH 1000 0
DWIDTH 16 0
BBX 16 16 0 -2
BITMAP
0000
0000
0000
0000
0400
0210
0208
0208
0204
0284
0100
0100
0000
0000
0000
0000
ENDCHAR

STARTCHAR Ca4a5
ENCODING 42149
SWIDTH 1000 0
DWIDTH 16 0
BBX 16 16 0 -2
BITMAP
0000
0000
0020
0018
0000
009C
0062
0002
0002
0002
0004
000C
0030
0000
0000
0000
ENDCHAR

STARTCHAR Ca4a7
ENCODING 42151
SWIDTH 1000 0
DWIDTH 16 0
BBX 16 16 0 -2
BITMAP
0000
0000
0080
0060
0000
0238
01C8
0010
0020
0040
00A0
0120
021E
0000
0000
0000
ENDCHAR

STARTCHAR Ca4a9
ENCODING 42153
SWIDTH 1000 0
DWIDTH 16 0
BBX 16 16 0 -2
BITMAP
0000
0000
0000
00C0
0044
0272
01C2
0040
007C
01C2
0242
0252
01CC
0000
0000
0000
ENDCHAR

STARTCHAR Ca4c3
ENCODING 42179
SWIDTH 1000 0
DWIDTH 16 0
BBX 16 16 0 -2
BITMAP
0000
0000
0000
0000
0070
0988
0604
0004
0004
0018
01E0
0000
0000
0000
0000
0000
ENDCHAR

STARTCHAR Ca4e3
ENCODING 42211
SWIDTH 1000 0
DWIDTH 16 0
BBX 16 16 0 -2
BITMAP
0000
0000
0020
0310
013C
00C2
0982
0692
004C
0040
0040
0020
0020
0000
0000
0000
ENDCHAR

STARTCHAR Ca4e5
ENCODING 42213
SWIDTH 1000 0
DWIDTH 16 0
BBX 16 16 0 -2
BITMAP
0000
0000
0060
0020
0278
04A4
0522
0522
06A4
0278
0020
0040
0080
0000
0000
0000
ENDCHAR

STARTCHAR Ca4e7
ENCODING 42215
SWIDTH 1000 0
DWIDTH 16 0
BBX 16 16 0 -2
BITMAP
0000
0000
0000
0030
0012
001C
0010
0010
0010
00F0
011C
0192
0070
0000
0000
0000
ENDCHAR

STARTCHAR Ca4ee
ENCODING 42222
SWIDTH 1000 0
DWIDTH 16 0
BBX 16 16 0 -2
BITMAP
0000
0000
0000
0180
0080
01B8
06C4
0082
0182
0282
0484
01B8
0080
0000
0000
0000
ENDCHAR

STARTCHAR Ca5a1
ENCODING 42401
SWIDTH 1000 0
DWIDTH 16 0
BBX 16 16 0 -2
BITMAP
0000
0000
0000
03FE
0002
0024
0028
0020
0020
0040
0040
0080
0000
0000
0000
0000
ENDCHAR

STARTCHAR Ca5a3
ENCODING 42403
SWIDTH 1000 0
DWIDTH 16 0
BBX 16 16 0 -2
BITMAP
0000
0000
0000
0004
0002
0004
0008
0018
0068
0188
0008
0008
0008
0000
0000
0000
ENDCHAR

STARTCHAR Ca5a5
ENCODING 42405
SWIDTH 1000 0
DWIDTH 16 0
BBX 16 16 0 -2
BITMAP
0000
0000
0000
0010
0010
00FE
0082
0082
0082
0004
0004
0008
0030
0000
0000
0000
ENDCHAR

STARTCHAR Ca5a7
ENCODING 42407
SWIDTH 1000 0
DWIDTH 16 0
BBX 16 16 0 -2
BITMAP
0000
0000
0000
0000
03F8
0040
0040
0040
0040
0044
07FC
0000
0000
0000
0000
0000
ENDCHAR

STARTCHAR Ca5a9
ENCODING 42409
SWIDTH 1000 0
DWIDTH 16 0
BBX 16 16 0 -2
BITMAP
0000
0000
0000
0010
0010
03FE
0050
0090
0090
0110
0210
0450
0030
0000
0000
0000
ENDCHAR

STARTCHAR Ca5c3
ENCODING 42435
SWIDTH 1000 0
DWIDTH 16 0
BBX 16 16 0 -2
BITMAP
0000
0000
0000
0046
0122
00A2
0082
0004
0004
0008
0030
00C0
0000
0000
0000
0000
ENDCHAR

STARTCHAR Ca5e3
ENCODING 42467
SWIDTH 1000 0
DWIDTH 16 0
BBX 16 16 0 -2
BITMAP
0000
0000
0000
0040
0040
005E
03E2
0024
0020
0020
0010
0010
0010
0000
0000
0000
ENDCHAR

STARTCHAR Ca5e5
ENCODING 42469
SWIDTH 1000 0
DWIDTH 16 0
BBX 16 16 0 -2
BITMAP
0000
0000
0000
0000
0000
03E0
0020
0020
0020
0024
0FFC
0000
0000
0000
0000
0000
ENDCHAR

STARTCHAR Ca5e7
ENCODING 42471
SWIDTH 1000 0
DWIDTH 16 0
BBX 16 16 0 -2
BITMAP
0000
0000
0000
03F8
0008
0008
0008
01F8
0008
0008
0008
03FC
0000
0000
0000
0000
ENDCHAR

STARTCHAR Ca5ee
ENCODING 42478
SWIDTH 1000 0
DWIDTH 16 0
BBX 16 16 0 -2
BITMAP
0000
0000
0000
01FE
0102
0102
0102
0002
0004
0004
0018
0060
0000
0000
0000
0000
ENDCHAR

STARTCHAR Ca5f5
ENCODING 42485
SWIDTH 1000 0
DWIDTH 16 0
BBX 16 16 0 -2
BITMAP
0000
0000
0000
0020
0020
01FE
0022
0022
0042
0042
008A
0104
0200
0000
0000
0000
ENDCHAR

STARTCHAR Ca5f6
ENCODING 42486
SWIDTH 1000 0
DWIDTH 16 0
BBX 16 16 0 -2
BITMAP
0000
0000
0000
0180
0080
0082
01FE
0210
0410
0020
0020
0040
0180
0000
0000
0000
ENDCHAR
ENDFONT
